<svg width="157" height="44" viewBox="0 0 157 44" fill="none" xmlns="http://www.w3.org/2000/svg">
<path d="M59.9103 29.54L72.1081 14.6128H60.382V9.76066H78.7461V13.9052L67.1211 28.8324H78.8809V33.6846H59.9103V29.54ZM80.6363 28.3944C80.6363 27.2262 80.962 26.2041 81.6134 25.328C82.2649 24.452 83.1634 23.7668 84.3091 23.2726C85.4547 22.7559 86.7689 22.4976 88.2515 22.4976C88.9703 22.4976 89.6779 22.565 90.3743 22.6998C91.0707 22.8121 91.6772 22.9806 92.1939 23.2052V22.4302C92.1939 21.4643 91.9018 20.723 91.3178 20.2063C90.7337 19.6896 89.8464 19.4313 88.6558 19.4313C87.6674 19.4313 86.7352 19.5998 85.8591 19.9367C85.0055 20.2737 84.0957 20.7567 83.1297 21.3857L81.5123 17.9487C82.6805 17.1849 83.8935 16.6121 85.1515 16.2302C86.4319 15.8483 87.7797 15.6574 89.195 15.6574C91.8457 15.6574 93.9011 16.2976 95.3613 17.578C96.8439 18.836 97.5852 20.6668 97.5852 23.0704V27.6867C97.5852 28.2259 97.6638 28.6078 97.821 28.8324C98.0008 29.0346 98.304 29.1581 98.7308 29.203V33.6846C98.2816 33.7744 97.8547 33.8418 97.4504 33.8867C97.0685 33.9317 96.7316 33.9541 96.4395 33.9541C95.4287 33.9541 94.6537 33.752 94.1145 33.3476C93.5979 32.9433 93.2721 32.3929 93.1373 31.6965L93.0363 30.9215C92.25 31.9324 91.3066 32.7074 90.2058 33.2465C89.1276 33.7632 87.9931 34.0215 86.8026 34.0215C85.6344 34.0215 84.5787 33.7744 83.6352 33.2802C82.7142 32.786 81.9841 32.1121 81.445 31.2585C80.9058 30.4049 80.6363 29.4501 80.6363 28.3944ZM91.3515 29.0683C91.5986 28.8661 91.8008 28.6415 91.958 28.3944C92.1152 28.1473 92.1939 27.9114 92.1939 27.6867V26.103C91.7446 25.9233 91.2392 25.7886 90.6776 25.6987C90.1384 25.5864 89.633 25.5302 89.1613 25.5302C88.1729 25.5302 87.3529 25.7549 86.7015 26.2041C86.05 26.6309 85.7243 27.2038 85.7243 27.9226C85.7243 28.327 85.8366 28.6976 86.0613 29.0346C86.2859 29.3715 86.5892 29.6411 86.971 29.8433C87.3754 30.0454 87.8471 30.1465 88.3863 30.1465C88.9254 30.1465 89.4645 30.0454 90.0037 29.8433C90.5428 29.6411 90.9921 29.3828 91.3515 29.0683ZM112.712 20.6107C111.41 20.6107 110.23 20.8241 109.174 21.2509C108.119 21.6552 107.355 22.2617 106.883 23.0704V33.6846H101.492V15.9944H106.445V19.5661C107.052 18.3755 107.838 17.4433 108.804 16.7694C109.77 16.0954 110.781 15.7473 111.836 15.7248C112.083 15.7248 112.263 15.7248 112.375 15.7248C112.51 15.7248 112.623 15.736 112.712 15.7585V20.6107ZM126.204 20.6107C124.901 20.6107 123.722 20.8241 122.666 21.2509C121.61 21.6552 120.846 22.2617 120.374 23.0704V33.6846H114.983V15.9944H119.936V19.5661C120.543 18.3755 121.329 17.4433 122.295 16.7694C123.261 16.0954 124.272 15.7473 125.328 15.7248C125.575 15.7248 125.755 15.7248 125.867 15.7248C126.002 15.7248 126.114 15.736 126.204 15.7585V20.6107ZM128.475 33.6846V15.9944H133.866V33.6846H128.475ZM128.475 13.9726V9.08674H133.866V13.9726H128.475ZM154.607 33.6846H149.215V23.7444C149.215 22.5762 148.991 21.7338 148.541 21.2172C148.115 20.678 147.542 20.4085 146.823 20.4085C146.329 20.4085 145.823 20.5433 145.307 20.8128C144.79 21.0824 144.318 21.453 143.891 21.9248C143.487 22.3965 143.173 22.9357 142.948 23.5422V33.6846H137.557V15.9944H142.409V18.9596C142.858 18.2632 143.42 17.6679 144.094 17.1737C144.768 16.6795 145.543 16.3088 146.419 16.0617C147.295 15.7922 148.249 15.6574 149.283 15.6574C150.428 15.6574 151.349 15.8708 152.046 16.2976C152.765 16.702 153.304 17.2411 153.663 17.915C154.045 18.5889 154.292 19.319 154.404 20.1052C154.539 20.869 154.607 21.6215 154.607 22.3628V33.6846Z" fill="#333333"/>
<path d="M4.88945 38.9723C1.09221 35.2276 -0.689229 29.5324 0.381427 24.2982C1.44056 18.4198 6.00621 13.2958 11.7719 11.6808C14.5945 14.5445 17.453 17.3696 20.2885 20.2179C20.8725 20.7814 21.4078 21.3949 22.0379 21.9084C20.0285 21.9289 18.0152 21.8546 16.0084 21.9327C13.2357 22.1082 10.8869 24.7234 11.0419 27.5037C11.0163 30.3097 13.5328 32.8455 16.3401 32.8288C21.8624 32.8417 27.3835 32.8276 32.9033 32.8378C36.5314 36.4698 40.1532 40.1096 43.8006 43.7237C43.2371 43.8312 42.6647 43.8018 42.096 43.7967C33.5807 43.798 25.068 43.7967 16.5553 43.798C12.238 43.8095 7.92469 42.0575 4.88945 38.9723Z" fill="#7C4EE4"/>
<path d="M10.7578 10.7132C7.16802 7.14772 3.63331 3.52337 -1.40422e-06 0.00019455C8.49865 0.0334927 16.996 0.00531313 25.4947 0.015559C26.9214 0.0347698 28.3621 -0.0651219 29.7722 0.202544C33.3863 0.700732 36.8096 2.46936 39.3108 5.12295C42.0911 8.00578 43.7176 11.9477 43.8444 15.9461C43.9392 19.2413 43.0068 22.5621 41.2228 25.3335C39.1238 28.557 35.8798 31.1056 32.1479 32.125C29.3611 29.2934 26.5308 26.5015 23.726 23.6853C23.1613 23.1615 22.6874 22.5339 22.0394 22.101C22.1495 22.0101 22.2686 21.9333 22.3993 21.8718C24.1807 21.9089 25.966 21.9038 27.7487 21.8808C30.515 21.8039 32.9432 19.2758 32.8881 16.5057C32.9688 14.2555 31.446 12.0937 29.347 11.3215C28.5466 10.9757 27.6629 10.9706 26.8061 10.9783C21.6347 10.9834 16.4645 10.977 11.2944 10.9821C11.078 10.9834 10.8987 10.8937 10.7578 10.7132Z" fill="#7C4EE4"/>
</svg>
